<svg xmlns="http://www.w3.org/2000/svg" viewBox="3.00505 1.00095 14.01 17.02">
	<path fill="#2563ea" d="M 10.042 18.017 C 13.582 18.017 17.122 15.174 17.013 10.743 C 17.002 8.262 15.486 5.288 13.689 3.368 C 13.248 2.904 12.842 2.828 12.275 3.421 C 11.996 3.741 11.756 4.046 11.506 4.387 C 10.88 3.323 9.822 1.981 9.064 1.242 C 8.733 0.917 8.225 0.905 7.879 1.302 C 4.959 4.012 2.955 7.674 3.006 11.047 C 2.971 14.466 5.763 17.986 10.042 18.017"/>
	<path fill="#f6f7fb" d="M 8.016 8.432 C 8.218 8.187 8.541 8.087 8.826 8.445 L 10.726 10.862 C 10.971 11.206 11.355 11.326 11.678 10.921 L 12.283 10.21 C 12.654 9.733 13.021 9.93 13.154 10.268 C 13.915 11.848 13.344 13.279 12.643 13.966 C 12.276 14.378 11.313 15.047 9.92 15.017 C 8.07 14.938 6.606 13.839 6.503 11.698 C 6.521 10.715 6.886 9.564 8.016 8.432 Z"/>
</svg>