<svg xmlns="http://www.w3.org/2000/svg" viewBox="-129414 15301 349500 282200">
	<path fill="#296d94" d="M 21531 101136 C 55884 -6786 155082 -7177 196417 67839 C 251786 173218 202541 278852 127270 297223 C 31150 304341 -2578 176634 21523 101182 Z"/>
	<path fill="#9ad7fa" d="M 36303 110341 C 66150 18625 157011 10411 194710 103782 C 214568 162916 202126 247889 133484 272988 C 71217 290436 9302 206258 36299 110357 Z"/>
	<path fill="#ffffff" d="M 97334 170915 C 74172 148107 79253 88260 122068 75650 C 154627 68122 182762 100493 181539 147542 C 170906 83272 107483 82425 105695 130134 C 122324 97376 162101 111894 172443 148687 C 180851 174757 178372 243409 122926 244946 C 164219 234646 175973 149449 136396 141514 C 163328 177115 146312 228646 108900 237818 C 72283 242135 49714 203767 51559 164344 C 63350 233483 127483 226054 127107 183455 C 107853 216172 71868 200616 60286 161936 C 51744 127831 59361 69434 110518 67083 C 62984 83750 62622 167504 97321 170938 Z"/>
	<path stroke-width="3000" stroke="#cae7ff" fill="#0079C1" d="M 36056 99541 L 52787 116466 C 55335 118905 57278 122663 57509 127094 L 57743 163803 L 83502 163861 C 99133 164388 99309 186576 85083 187748 L 47615 187690 C 38131 185699 34209 180840 33799 171882 L 34092 147821 L 1484 182010 L 18435 199141 C 21681 202031 24220 205076 24370 213718 L 24069 259168 C 23468 278397 -2449 277120 -4477 260294 L -4402 217620 L -32527 189386 C -38465 183057 -38963 170541 -32705 163109 L 10068 120762 L -21150 120904 L -36830 136836 C -49879 144446 -63105 131220 -53776 119998 L -36271 102216 C -33252 99087 -28848 96816 -24300 96947 L 24265 96973 C 28298 97019 32502 96704 36056 99541 Z"/>
	<path stroke-width="3000" stroke="#cae7ff" fill="#0079C1" d="M -61575 200052 L -80378 181992 C -95786 170154 -112165 188906 -99675 202898 L -72708 230236 C -67747 234764 -57273 235484 -51060 230607 L -27132 206562 L -47757 186303 Z"/>
	<path stroke-width="3000" stroke="#cae7ff" fill="#0079C1" d="M 54917 70940 C 58019 67270 62076 64215 66945 61077 C 70798 58606 78141 58135 83454 59437 C 90001 61239 97704 68166 99783 73786 C 101584 78918 101057 85319 99041 89620 C 97572 94640 91999 101681 87787 104446 C 82712 107361 76297 108744 71084 108423 C 64787 107974 58992 105450 55126 101001 C 50992 96312 49360 89402 49324 84464 C 49431 80627 51443 75322 54917 70940 Z"/>
	<path stroke-width="3000" stroke="#cae7ff" fill="#0079C1" d="M -61766 93963 L -109198 93756 C -118107 94479 -117882 99513 -109004 100268 L -61864 100267 C -52233 99272 -52675 94780 -61766 93963 Z"/>
	<path stroke-width="3000" stroke="#cae7ff" fill="#0079C1" d="M -80747 127197 L -123565 127314 C -131448 128118 -131298 132468 -123507 133222 L -80689 133105 C -72573 132318 -72648 127743 -80747 127197 Z"/>
</svg>